<svg width="1237" height="2195" viewBox="0 0 1237 2195" fill="none" xmlns="http://www.w3.org/2000/svg">
<defs>
<linearGradient id="paint0_linear_2843_1740" x1="1236.27" y1="1394.52" x2="-93.2606" y2="1717.94" gradientUnits="userSpaceOnUse">
<stop offset="0.36833" stop-color="#FF32A1"/>
<stop offset="1" stop-color="#29FFE5"/>
</linearGradient>
<radialGradient id="paint1_radial_2843_1740" cx="0" cy="0" r="1" gradientUnits="userSpaceOnUse" gradientTransform="translate(1236.27 990.08) rotate(142.626) scale(692.936 920.411)">
<stop stop-color="#E31955"/>
<stop offset="1" stop-color="#E31955" stop-opacity="0"/>
</radialGradient>
<radialGradient id="paint2_radial_2843_1740" cx="0" cy="0" r="1" gradientUnits="userSpaceOnUse" gradientTransform="translate(222.456 2.15489e-05) rotate(60.8976) scale(1510.85 1856.25)">
<stop offset="0.0499066" stop-color="#B5FF3D"/>
<stop offset="0.872243" stop-color="#FFC93D" stop-opacity="0"/>
</radialGradient>
<radialGradient id="paint3_radial_2843_1740" cx="0" cy="0" r="1" gradientUnits="userSpaceOnUse" gradientTransform="translate(946.349 -397.973) rotate(33.1745) scale(413.912 1620.76)">
<stop stop-color="#FFD028"/>
<stop offset="1" stop-color="#FFD028" stop-opacity="0"/>
</radialGradient>
</defs>
<rect width="1237" height="2195" fill="url(#paint0_linear_2843_1740)"/>
<rect width="1237" height="2195" fill="url(#paint1_radial_2843_1740)" fill-opacity="0.9"/>
<rect width="1237" height="2195" fill="url(#paint2_radial_2843_1740)"/>
<rect width="1237" height="2195" fill="url(#paint3_radial_2843_1740)" fill-opacity="0.4"/>
<path d="M453.959 1178.69C453.407 1178.79 452.878 1178.99 452.406 1179.29C451.952 1179.58 451.592 1179.99 451.358 1180.48C451.082 1181.08 450.951 1181.74 450.975 1182.41V1192.24C450.951 1192.9 451.082 1193.56 451.358 1194.17C451.592 1194.65 451.957 1195.05 452.406 1195.34C452.883 1195.64 453.411 1195.84 453.959 1195.94C454.595 1196.06 455.235 1196.11 455.881 1196.11H461.938V1194.52H456.18C455.656 1194.52 455.189 1194.51 454.777 1194.47C454.408 1194.46 454.048 1194.36 453.72 1194.18C453.421 1194.02 453.187 1193.75 453.051 1193.44C452.878 1192.97 452.799 1192.48 452.822 1191.98V1182.66C452.799 1182.18 452.883 1181.7 453.065 1181.25C453.206 1180.92 453.444 1180.65 453.744 1180.46C454.066 1180.27 454.431 1180.17 454.801 1180.14C455.217 1180.1 455.675 1180.08 456.18 1180.08H461.938V1178.52H455.881C455.235 1178.52 454.59 1178.57 453.959 1178.69Z" fill="white"/>
<path d="M485.932 1180.5C485.661 1180 485.273 1179.58 484.805 1179.26C484.37 1178.97 483.888 1178.77 483.378 1178.67C482.929 1178.58 482.476 1178.53 482.017 1178.52H478.701C478.243 1178.52 477.789 1178.58 477.34 1178.67C476.831 1178.77 476.344 1178.97 475.914 1179.26C475.446 1179.58 475.063 1180 474.796 1180.5C474.469 1181.16 474.315 1181.9 474.347 1182.64V1192.03C474.315 1192.77 474.469 1193.49 474.796 1194.15C475.063 1194.65 475.446 1195.07 475.914 1195.39C476.344 1195.68 476.831 1195.87 477.34 1195.97C477.789 1196.06 478.243 1196.1 478.701 1196.11H482.017C482.476 1196.1 482.929 1196.06 483.378 1195.97C483.888 1195.87 484.375 1195.68 484.805 1195.39C485.273 1195.07 485.661 1194.65 485.932 1194.15C486.269 1193.49 486.428 1192.77 486.395 1192.03V1182.64C486.428 1181.89 486.269 1181.16 485.932 1180.5ZM484.529 1192.04C484.552 1192.53 484.459 1193.02 484.253 1193.46C484.103 1193.76 483.879 1194.01 483.598 1194.2C483.35 1194.35 483.07 1194.45 482.78 1194.48C482.536 1194.5 482.289 1194.52 482.041 1194.52H478.701C478.454 1194.52 478.201 1194.5 477.953 1194.48C477.322 1194.42 476.765 1194.03 476.489 1193.46C476.284 1193.01 476.19 1192.53 476.213 1192.04V1182.64C476.157 1181.96 476.363 1181.3 476.789 1180.77C477.317 1180.31 478.005 1180.09 478.701 1180.16H482.059C482.747 1180.09 483.434 1180.31 483.958 1180.76C484.379 1181.29 484.58 1181.97 484.524 1182.64V1192.04L484.529 1192.04Z" fill="white"/>
<path d="M509.724 1193.85L501.437 1178.52H499.178V1196.11H501.021V1181.23L509.102 1196.1H511.59V1178.52H509.724V1193.85V1193.85Z" fill="white"/>
<path d="M534.965 1193.85L526.678 1178.52H524.419V1196.11H526.261V1181.23L534.343 1196.1H536.831V1178.52H534.965V1193.85V1193.85Z" fill="white"/>
<path d="M549.66 1196.11H561.104V1194.54H551.456V1187.77H559.654V1186.27H551.456V1180.08H561.104V1178.52H549.66V1196.11Z" fill="white"/>
<path d="M576.365 1178.69C575.813 1178.79 575.284 1178.99 574.812 1179.29C574.358 1179.58 573.998 1179.99 573.764 1180.48C573.488 1181.08 573.362 1181.74 573.386 1182.41V1192.24C573.362 1192.9 573.488 1193.56 573.764 1194.17C574.003 1194.65 574.363 1195.05 574.812 1195.34C575.289 1195.64 575.818 1195.84 576.365 1195.94C576.996 1196.06 577.642 1196.11 578.287 1196.11H584.348V1194.52H578.591C578.067 1194.52 577.599 1194.51 577.188 1194.47C576.818 1194.46 576.458 1194.36 576.131 1194.18C575.832 1194.02 575.598 1193.75 575.462 1193.44C575.289 1192.97 575.21 1192.48 575.233 1191.98V1182.66C575.21 1182.18 575.294 1181.7 575.476 1181.25C575.616 1180.92 575.855 1180.65 576.154 1180.46C576.477 1180.27 576.842 1180.16 577.211 1180.14C577.623 1180.1 578.086 1180.08 578.591 1180.08H584.348V1178.52H578.292C577.646 1178.52 577.001 1178.57 576.365 1178.69Z" fill="white"/>
<path d="M596.307 1180.06H601.559V1196.11H603.36V1180.08H608.612V1178.52H596.312V1180.06L596.307 1180.06Z" fill="white"/>
<path d="M620.923 1196.11H632.367V1194.54H622.719V1187.77H630.917V1186.27H622.719V1180.08H632.367V1178.52H620.923V1196.11Z" fill="white"/>
<path d="M651.729 1178.52H644.723V1196.11H651.729C655.119 1196.11 656.817 1194.56 656.817 1191.46V1183.17C656.817 1180.07 655.119 1178.52 651.729 1178.52V1178.52ZM654.951 1191.27C654.951 1193.45 653.889 1194.54 651.771 1194.54H646.537V1180.09H651.696C652.608 1180.02 653.506 1180.36 654.137 1181.02C654.708 1181.73 654.993 1182.63 654.942 1183.54V1191.28L654.951 1191.27Z" fill="white"/>
<path d="M695.537 1178.69C694.985 1178.79 694.457 1178.99 693.98 1179.29C693.526 1179.58 693.166 1179.99 692.932 1180.48C692.656 1181.08 692.53 1181.74 692.553 1182.41V1192.24C692.53 1192.9 692.656 1193.56 692.932 1194.17C693.166 1194.65 693.531 1195.05 693.98 1195.34C694.457 1195.64 694.985 1195.84 695.537 1195.94C696.168 1196.06 696.814 1196.11 697.459 1196.11H703.516V1194.52H697.759C697.235 1194.52 696.767 1194.51 696.356 1194.47C695.986 1194.46 695.626 1194.36 695.299 1194.18C694.999 1194.02 694.765 1193.75 694.63 1193.44C694.457 1192.97 694.377 1192.48 694.401 1191.98V1182.66C694.377 1182.18 694.461 1181.7 694.644 1181.25C694.784 1180.92 695.023 1180.65 695.322 1180.46C695.645 1180.27 696.01 1180.16 696.379 1180.14C696.791 1180.1 697.254 1180.08 697.759 1180.08H703.516V1178.52H697.459C696.814 1178.52 696.173 1178.57 695.537 1178.69Z" fill="white"/>
<path d="M724.313 1178.5H721.755L715.535 1196.09H717.518L719.426 1190.45H726.684L728.597 1196.09H730.58L724.313 1178.5V1178.5ZM719.959 1188.93L723.069 1179.76L726.156 1188.93H719.959Z" fill="white"/>
<path d="M743.023 1196.11H744.842V1187.77H753.017V1186.27H744.819V1180.08H754.467V1178.52H743.023V1196.11V1196.11Z" fill="white"/>
<path d="M766.701 1196.11H778.145V1194.54H768.497V1187.77H776.695V1186.27H768.497V1180.08H778.145V1178.52H766.701V1196.11Z" fill="white"/>
<path d="M370.237 997.011H364.433L344 1131.91H355.07L369.639 1020.48L384.207 1131.91H395.272L375.545 1002.64C374.937 998.816 374.217 997.011 370.237 997.011V997.011Z" fill="white"/>
<path d="M557.726 1129.19L560.813 1122.34H525.493C523.936 1122.4 522.444 1121.73 521.462 1120.52C520.442 1119.14 520.147 1117.35 520.676 1115.71L560.963 997.011H513.459L514.011 998.278C515.148 1000.88 516.219 1003.34 516.584 1004.06C517.257 1005.27 518.824 1006.78 522.308 1006.78H538.448C540.043 1006.68 541.586 1007.35 542.615 1008.57C543.56 1009.82 543.883 1011.44 543.48 1012.95L503.376 1131.91H552.207C555.94 1131.91 557.146 1130.36 557.731 1129.19H557.726Z" fill="white"/>
<path d="M726.211 1129.3C726.524 1128.67 727.577 1126.26 728.694 1123.7L729.284 1122.35H698.215V999.104C698.112 997.916 697.121 997.005 695.928 997.005L688.445 997.014V1131.91H720.435C723.26 1131.91 725.257 1131.01 726.206 1129.3L726.211 1129.3Z" fill="white"/>
<path d="M894.315 1131.91V997.012H887.838C885.672 997.012 884.354 998.032 883.704 1000.22L865.772 1091.61L846.929 1000.36C846.635 998.34 844.834 996.881 842.795 997.008H836.317V1131.91H845.882V1042.06L858.93 1098.79C859.73 1101.91 861.226 1107.79 867.311 1107.79H869.86L884.751 1041.63V1131.9H894.32L894.315 1131.91Z" fill="white"/>
</svg>
