<svg xmlns:xlink="http://www.w3.org/1999/xlink" xmlns="http://www.w3.org/2000/svg" width="91" height="60" viewBox="0 0 91 60" fill="none">
<rect x="1.65625" y="1.5" width="87" height="57" rx="1.5" fill="white"/>
<g clip-path="url(#clip0_1683_1186)">
<path d="M68.8299 53.8931H20.9365V5.99976H68.8299V53.8931Z" fill="white"/>
<path d="M68.8299 31.9412V6.02124H20.9365V53.9146H68.8299V39.9412C68.7232 39.9412 68.8299 31.9412 68.8299 31.9412Z" fill="#006FCF"/>
<path d="M62.9632 29.2746H66.5899V20.8479H62.6432V22.0212L61.8965 20.8479H58.4832V22.3412L57.8432 20.8479H51.5499C51.3365 20.8479 51.1232 20.9546 50.9099 20.9546C50.6965 20.9546 50.5899 21.0612 50.3765 21.1679C50.1632 21.2746 50.0565 21.2746 49.8432 21.3812V20.8479H31.8165L31.2832 22.2346L30.7499 20.8479H26.4832V22.3412L25.8432 20.8479H22.4299L20.9365 24.4746V29.2746H23.3899L23.8165 28.1012H24.6699L25.0965 29.2746H43.8699V28.2079L44.6165 29.2746H49.8432V28.6346C49.9499 28.7412 50.1632 28.7412 50.2699 28.8479C50.3765 28.9546 50.5899 28.9546 50.6965 29.0612C50.9099 29.1679 51.1232 29.1679 51.3365 29.1679H55.1765L55.6032 27.9946H56.4565L56.8832 29.1679H62.1099V28.1012L62.9632 29.2746ZM68.8299 39.9412V32.0479H39.4965L38.7499 33.1146L38.0032 32.0479H29.4699V40.4746H38.0032L38.7499 39.4079L39.4965 40.4746H44.8299V38.6612H44.6165C45.3632 38.6612 46.0032 38.5546 46.5365 38.3412V40.5812H50.3765V39.5146L51.1232 40.5812H67.0165C67.6565 40.3679 68.2965 40.2612 68.8299 39.9412Z" fill="white"/>
<path d="M67.0165 37.9149H64.1365V39.0882H66.9099C68.0832 39.0882 68.8299 38.3415 68.8299 37.2749C68.8299 36.2082 68.1899 35.6749 67.1232 35.6749H65.8432C65.5232 35.6749 65.3099 35.4615 65.3099 35.1415C65.3099 34.8215 65.5232 34.6082 65.8432 34.6082H68.2965L68.8299 33.4349H65.9499C64.7765 33.4349 64.0299 34.1815 64.0299 35.1415C64.0299 36.2082 64.6699 36.7415 65.7365 36.7415H67.0165C67.3365 36.7415 67.5499 36.9549 67.5499 37.2749C67.6565 37.7015 67.4432 37.9149 67.0165 37.9149ZM61.7899 37.9149H58.9099V39.0882H61.6832C62.8565 39.0882 63.6032 38.3415 63.6032 37.2749C63.6032 36.2082 62.9632 35.6749 61.8965 35.6749H60.6165C60.2965 35.6749 60.0832 35.4615 60.0832 35.1415C60.0832 34.8215 60.2965 34.6082 60.6165 34.6082H63.0699L63.6032 33.4349H60.7232C59.5499 33.4349 58.8032 34.1815 58.8032 35.1415C58.8032 36.2082 59.4432 36.7415 60.5099 36.7415H61.7899C62.1099 36.7415 62.3232 36.9549 62.3232 37.2749C62.4299 37.7015 62.1099 37.9149 61.7899 37.9149ZM58.0565 34.5015V33.3282H53.5765V38.9815H58.0565V37.8082H54.8565V36.6349H57.9499V35.4615H54.8565V34.3949H58.0565V34.5015ZM50.8032 34.5015C51.3365 34.5015 51.5499 34.8215 51.5499 35.1415C51.5499 35.4615 51.3365 35.7815 50.8032 35.7815H49.2032V34.3949L50.8032 34.5015ZM49.2032 36.9549H49.8432L51.5499 38.9815H53.1499L51.2299 36.8482C52.1899 36.6349 52.7232 35.9949 52.7232 35.1415C52.7232 34.0749 51.9765 33.3282 50.8032 33.3282H47.8165V38.9815H49.0965L49.2032 36.9549ZM45.7899 35.2482C45.7899 35.6749 45.5765 35.9949 45.0432 35.9949H43.3365V34.5015H44.9365C45.4699 34.5015 45.7899 34.8215 45.7899 35.2482ZM42.0565 33.3282V38.9815H43.3365V37.0615H45.0432C46.2165 37.0615 47.0699 36.3149 47.0699 35.1415C47.0699 34.0749 46.3232 33.2215 45.1499 33.2215L42.0565 33.3282ZM40.1365 38.9815H41.7365L39.4965 36.1015L41.7365 33.3282H40.1365L38.7499 35.1415L37.3632 33.3282H35.7632L38.0032 36.1015L35.7632 38.8749H37.3632L38.7499 37.0615L40.1365 38.9815ZM35.3365 34.5015V33.3282H30.8565V38.9815H35.3365V37.8082H32.1365V36.6349H35.2299V35.4615H32.1365V34.3949H35.3365V34.5015ZM61.2565 24.4749L63.4965 27.8882H65.0965V22.2349H63.8165V25.9682L63.4965 25.4349L61.4699 22.2349H59.7632V27.8882H61.0432V24.0482L61.2565 24.4749ZM55.7099 24.3682L56.1365 23.1949L56.5632 24.3682L57.0965 25.6482H55.1765L55.7099 24.3682ZM57.9499 27.8882H59.3365L56.8832 22.2349H55.1765L52.7232 27.8882H54.1099L54.6432 26.7149H57.4165L57.9499 27.8882ZM51.9765 27.8882L52.5099 26.7149H52.1899C51.2299 26.7149 50.6965 26.0749 50.6965 25.1149V25.0082C50.6965 24.0482 51.2299 23.4082 52.1899 23.4082H53.5765V22.2349H52.0832C50.3765 22.2349 49.4165 23.4082 49.4165 25.0082V25.1149C49.4165 26.8215 50.3765 27.8882 51.9765 27.8882ZM47.1765 27.8882H48.4565V22.3415H47.1765V27.8882ZM44.4032 23.4082C44.9365 23.4082 45.1499 23.7282 45.1499 24.0482C45.1499 24.3682 44.9365 24.6882 44.4032 24.6882H42.8032V23.3015L44.4032 23.4082ZM42.8032 25.8615H43.4432L45.1499 27.8882H46.7499L44.8299 25.7549C45.7899 25.5415 46.3232 24.9015 46.3232 24.0482C46.3232 22.9815 45.5765 22.2349 44.4032 22.2349H41.4165V27.8882H42.6965L42.8032 25.8615ZM40.4565 23.4082V22.2349H35.9765V27.8882H40.4565V26.7149H37.2565V25.5415H40.3499V24.3682H37.2565V23.3015H40.4565V23.4082ZM30.7499 27.8882H31.9232L33.5232 23.3015V27.8882H34.8032V22.2349H32.6699L31.3899 26.0749L30.1099 22.2349H27.9765V27.8882H29.2565V23.3015L30.7499 27.8882ZM23.8165 24.3682L24.2432 23.1949L24.6699 24.3682L25.2032 25.6482H23.2832L23.8165 24.3682ZM26.0565 27.8882H27.4432L24.9899 22.2349H23.3899L20.9365 27.8882H22.3232L22.8565 26.7149H25.6299L26.0565 27.8882Z" fill="#006FCF"/>
</g>
<rect x="1.65625" y="1.5" width="87" height="57" rx="1.5" stroke="#EFEFF4" stroke-width="3"/>
<defs>
<clipPath id="clip0_1683_1186">
<rect width="48" height="48" fill="white" transform="translate(20.9365 5.99976)"/>
</clipPath>
</defs>
</svg>