<svg xmlns:xlink="http://www.w3.org/1999/xlink" xmlns="http://www.w3.org/2000/svg" width="25" height="23" viewBox="0 0 25 23" fill="none">
<g clip-path="url(#clip0_1133_967)">
<path d="M23.5147 17.6569C23.5047 18.9234 22.9941 20.1346 22.0944 21.026C21.1948 21.9175 19.979 22.4169 18.7125 22.4153H6.28737C5.02059 22.4177 3.80439 21.9185 2.90454 21.0269C2.00469 20.1352 1.49437 18.9237 1.48511 17.6569V5.3429C1.49437 4.07615 2.00469 2.86458 2.90454 1.97295C3.80439 1.08131 5.02059 0.58213 6.28737 0.584481H18.7125C19.979 0.582898 21.1948 1.08233 22.0944 1.9738C22.9941 2.86526 23.5047 4.07639 23.5147 5.3429V17.6569Z" stroke="white" stroke-width="1.21998"/>
<path d="M23.5147 17.6569C23.5047 18.9234 22.9941 20.1346 22.0944 21.026C21.1948 21.9175 19.979 22.4169 18.7125 22.4153H6.28737C5.02059 22.4177 3.80439 21.9185 2.90454 21.0269C2.00469 20.1352 1.49437 18.9237 1.48511 17.6569V5.3429C1.49437 4.07615 2.00469 2.86458 2.90454 1.97295C3.80439 1.08131 5.02059 0.58213 6.28737 0.584481H18.7125C19.979 0.582898 21.1948 1.08233 22.0944 1.9738C22.9941 2.86526 23.5047 4.07639 23.5147 5.3429V17.6569Z" stroke="white" stroke-width="1.21998"/>
<path d="M23.5147 17.6569C23.5047 18.9234 22.9941 20.1346 22.0944 21.026C21.1948 21.9175 19.979 22.4169 18.7125 22.4153H6.28737C5.02059 22.4177 3.80439 21.9185 2.90454 21.0269C2.00469 20.1352 1.49437 18.9237 1.48511 17.6569V5.3429C1.49437 4.07615 2.00469 2.86458 2.90454 1.97295C3.80439 1.08131 5.02059 0.58213 6.28737 0.584481H18.7125C19.979 0.582898 21.1948 1.08233 22.0944 1.9738C22.9941 2.86526 23.5047 4.07639 23.5147 5.3429V17.6569Z" stroke="white" stroke-width="1.21998"/>
<path d="M5.04525 10.0633C5.03756 9.91025 5.06156 9.75722 5.11574 9.61384C5.16991 9.47045 5.25311 9.33979 5.36012 9.23004C5.46712 9.12029 5.59563 9.03382 5.7376 8.97603C5.87957 8.91824 6.03194 8.89038 6.18517 8.89419C6.33552 8.88856 6.48544 8.91377 6.62567 8.96829C6.76591 9.0228 6.89349 9.10546 7.00057 9.21116C7.10764 9.31687 7.19193 9.44338 7.24825 9.5829C7.30456 9.72242 7.33171 9.872 7.32801 10.0224V10.0838C7.33173 10.2341 7.30458 10.3835 7.24823 10.5229C7.19189 10.6623 7.10754 10.7886 7.00043 10.8941C6.89331 10.9996 6.76569 11.0819 6.62546 11.1361C6.48523 11.1903 6.33538 11.2151 6.18517 11.2091C6.03194 11.2129 5.87957 11.185 5.7376 11.1273C5.59563 11.0695 5.46712 10.983 5.36012 10.8732C5.25311 10.7635 5.16991 10.6328 5.11574 10.4894C5.06156 10.3461 5.03756 10.193 5.04525 10.04M7.31339 5.61182V7.9501C6.95669 7.75024 6.55305 7.64933 6.14425 7.65782C5.82266 7.64658 5.50209 7.70022 5.20168 7.81554C4.90126 7.93085 4.62714 8.10548 4.39566 8.32902C4.16418 8.55255 3.98009 8.8204 3.85435 9.11661C3.72862 9.41282 3.66382 9.73131 3.66382 10.0531C3.66382 10.3749 3.72862 10.6934 3.85435 10.9896C3.98009 11.2858 4.16418 11.5537 4.39566 11.7772C4.62714 12.0007 4.90126 12.1754 5.20168 12.2907C5.50209 12.406 5.82266 12.4596 6.14425 12.4484C7.34555 12.4484 7.79274 11.8638 8.62868 11.4926V5.61182H7.31339Z" stroke="white" stroke-width="1.21998"/>
<path d="M10.2216 11.478H10.2888C10.8997 11.478 10.9143 11.478 10.9143 11.1595V10.3527C10.6834 10.417 10.4087 10.4843 10.1485 10.5457L9.98486 9.80325C10.3122 9.74479 10.6337 9.66003 10.9143 9.58111V8.53472H10.1369V7.81278H10.9289V6.88623H11.6509V7.81278H12.3232V8.53472H11.6509V9.34144C11.9783 9.21867 12.215 9.11053 12.3232 9.06376V9.79156C12.1047 9.90137 11.8802 9.99895 11.6509 10.0838V11.2062C11.6509 12.0305 11.6071 12.2117 10.5256 12.2409L10.2216 11.478ZM14.7521 12.2789C14.6848 12.0246 14.6176 11.7908 14.5504 11.5745C13.6673 11.8492 12.7615 12.0448 11.8438 12.1591L11.6772 11.3904C11.8175 11.3904 11.9929 11.3465 12.0922 11.3348C12.5654 9.89532 12.9327 8.42314 13.1912 6.93007L13.9921 7.0616C13.6998 8.53765 13.3608 9.86755 12.9662 11.1975C13.4238 11.1199 13.8744 11.0055 14.3136 10.8555C14.1733 10.4404 14.0038 10.0546 13.8226 9.62495L14.4656 9.28882C14.8625 10.1405 15.1975 11.0196 15.4682 11.9194L14.7521 12.2789Z" stroke="white" stroke-width="1.21998"/>
<path d="M18.7681 11.5571C18.3898 11.8475 17.9344 12.0203 17.4586 12.054C16.6636 12.054 16.0498 11.4168 16.0498 9.63675C16.0602 8.86834 16.1394 8.10241 16.2866 7.34814H17.1108C16.9437 8.13233 16.8566 8.93144 16.8507 9.7332C16.8507 10.6773 17.0933 11.2531 17.5609 11.2531C18.0286 11.2531 18.4378 10.8877 18.7681 10.6217V11.5571ZM20.209 11.5249C20.209 9.99041 20.0337 8.80373 19.151 7.47967H20.0687C20.6708 8.43253 21.0362 9.59875 21.0362 11.5249H20.209Z" stroke="white" stroke-width="1.21998"/>
<path d="M9.03776 16.5199C9.04008 16.8215 8.95281 17.1169 8.78703 17.3688C8.62124 17.6207 8.3844 17.8177 8.10653 17.9349C7.82865 18.052 7.52226 18.084 7.22617 18.0268C6.93009 17.9696 6.65766 17.8258 6.4434 17.6136C6.22915 17.4014 6.08272 17.1303 6.02268 16.8348C5.96264 16.5393 5.99168 16.2326 6.10614 15.9536C6.2206 15.6746 6.41531 15.4359 6.6656 15.2677C6.91589 15.0995 7.21048 15.0094 7.51203 15.0088C7.71149 15.0077 7.90921 15.0459 8.09389 15.1212C8.27857 15.1966 8.44658 15.3076 8.58829 15.4479C8.73001 15.5883 8.84266 15.7552 8.91978 15.9392C8.99691 16.1231 9.037 16.3205 9.03776 16.5199V16.5199Z" stroke="white" stroke-width="1.21998"/>
<path d="M14.0214 16.5199C14.0237 16.8216 13.9364 17.1172 13.7705 17.3691C13.6046 17.6211 13.3675 17.8181 13.0895 17.9351C12.8115 18.0522 12.5049 18.084 12.2087 18.0266C11.9126 17.9692 11.6401 17.8251 11.426 17.6126C11.2119 17.4001 11.0657 17.1288 11.006 16.833C10.9462 16.5373 10.9757 16.2305 11.0906 15.9516C11.2055 15.6727 11.4007 15.4341 11.6514 15.2663C11.902 15.0984 12.1969 15.0088 12.4986 15.0088C12.6979 15.0077 12.8955 15.0459 13.08 15.1213C13.2645 15.1966 13.4323 15.3077 13.5738 15.4481C13.7153 15.5885 13.8277 15.7555 13.9045 15.9394C13.9813 16.1233 14.021 16.3206 14.0214 16.5199Z" stroke="white" stroke-width="1.21998"/>
<path d="M19.0077 16.5199C19.0106 16.8223 18.9236 17.1187 18.7577 17.3715C18.5918 17.6244 18.3546 17.8222 18.076 17.9399C17.7975 18.0576 17.4903 18.0899 17.1934 18.0327C16.8964 17.9755 16.6232 17.8314 16.4084 17.6186C16.1935 17.4058 16.0468 17.134 15.9867 16.8376C15.9266 16.5413 15.956 16.2337 16.071 15.9541C16.1861 15.6745 16.3816 15.4353 16.6328 15.267C16.884 15.0987 17.1796 15.0088 17.482 15.0088C17.6814 15.0077 17.8791 15.0459 18.0638 15.1212C18.2485 15.1966 18.4165 15.3076 18.5582 15.4479C18.6999 15.5883 18.8126 15.7552 18.8897 15.9392C18.9668 16.1231 19.0069 16.3205 19.0077 16.5199V16.5199Z" stroke="white" stroke-width="1.21998"/>
<path d="M23.5147 17.6569C23.5047 18.9234 22.9941 20.1346 22.0944 21.026C21.1948 21.9175 19.979 22.4169 18.7125 22.4153H6.28737C5.02059 22.4177 3.80439 21.9185 2.90454 21.0269C2.00469 20.1352 1.49437 18.9237 1.48511 17.6569V5.3429C1.49437 4.07615 2.00469 2.86458 2.90454 1.97295C3.80439 1.08131 5.02059 0.58213 6.28737 0.584481H18.7125C19.979 0.582898 21.1948 1.08233 22.0944 1.9738C22.9941 2.86526 23.5047 4.07639 23.5147 5.3429V17.6569Z" fill="#D00F31"/>
<path d="M7.31339 5.61182V7.9501C6.95669 7.75024 6.55305 7.64933 6.14425 7.65782C5.82266 7.64658 5.50209 7.70022 5.20168 7.81554C4.90126 7.93085 4.62714 8.10548 4.39566 8.32902C4.16418 8.55255 3.98009 8.8204 3.85435 9.11661C3.72862 9.41282 3.66382 9.73131 3.66382 10.0531C3.66382 10.3749 3.72862 10.6934 3.85435 10.9896C3.98009 11.2858 4.16418 11.5537 4.39566 11.7772C4.62714 12.0007 4.90126 12.1754 5.20168 12.2907C5.50209 12.406 5.82266 12.4596 6.14425 12.4484C7.34555 12.4484 7.79274 11.8638 8.62868 11.4926V5.61182H7.31339ZM5.04525 10.0633C5.03756 9.91025 5.06156 9.75722 5.11574 9.61384C5.16991 9.47045 5.25311 9.33979 5.36012 9.23004C5.46712 9.12029 5.59563 9.03382 5.7376 8.97603C5.87957 8.91824 6.03194 8.89038 6.18517 8.89419C6.33552 8.88856 6.48544 8.91377 6.62567 8.96829C6.76591 9.0228 6.89349 9.10546 7.00057 9.21116C7.10764 9.31687 7.19193 9.44338 7.24825 9.5829C7.30456 9.72242 7.33171 9.872 7.32801 10.0224V10.0838C7.33173 10.2341 7.30458 10.3835 7.24823 10.5229C7.19189 10.6623 7.10754 10.7886 7.00043 10.8941C6.89331 10.9996 6.76569 11.0819 6.62546 11.1361C6.48523 11.1903 6.33538 11.2151 6.18517 11.2091C6.03194 11.2129 5.87957 11.185 5.7376 11.1273C5.59563 11.0695 5.46712 10.983 5.36012 10.8732C5.25311 10.7635 5.16991 10.6328 5.11574 10.4894C5.06156 10.3461 5.03756 10.193 5.04525 10.04" fill="white"/>
<path d="M10.2216 11.478H10.2888C10.8997 11.478 10.9143 11.478 10.9143 11.1595V10.3527C10.6834 10.417 10.4087 10.4843 10.1485 10.5457L9.98486 9.80325C10.3122 9.74479 10.6337 9.66003 10.9143 9.58111V8.53472H10.1369V7.81278H10.9289V6.88623H11.6509V7.81278H12.3232V8.53472H11.6509V9.34144C11.9783 9.21867 12.215 9.11053 12.3232 9.06376V9.79156C12.1047 9.90137 11.8802 9.99895 11.6509 10.0838V11.2062C11.6509 12.0305 11.6071 12.2117 10.5256 12.2409L10.2216 11.478ZM14.7521 12.2789C14.6848 12.0246 14.6176 11.7908 14.5504 11.5745C13.6673 11.8492 12.7615 12.0448 11.8438 12.1591L11.6772 11.3904C11.8175 11.3904 11.9929 11.3465 12.0922 11.3348C12.5654 9.89532 12.9327 8.42314 13.1912 6.93007L13.9921 7.0616C13.6998 8.53765 13.3608 9.86755 12.9662 11.1975C13.4238 11.1199 13.8744 11.0055 14.3136 10.8555C14.1733 10.4404 14.0038 10.0546 13.8226 9.62495L14.4656 9.28882C14.8625 10.1405 15.1975 11.0196 15.4682 11.9194L14.7521 12.2789Z" fill="white"/>
<path d="M18.7681 11.5571C18.3898 11.8475 17.9344 12.0203 17.4586 12.054C16.6636 12.054 16.0498 11.4168 16.0498 9.63675C16.0602 8.86834 16.1394 8.10241 16.2866 7.34814H17.1108C16.9437 8.13233 16.8566 8.93144 16.8507 9.7332C16.8507 10.6773 17.0933 11.2531 17.5609 11.2531C18.0286 11.2531 18.4378 10.8877 18.7681 10.6217V11.5571ZM20.209 11.5249C20.209 9.99041 20.0337 8.80373 19.151 7.47967H20.0687C20.6708 8.43253 21.0362 9.59875 21.0362 11.5249H20.209Z" fill="white"/>
<path d="M9.03776 16.5199C9.04008 16.8215 8.95281 17.1169 8.78703 17.3688C8.62124 17.6207 8.3844 17.8177 8.10653 17.9349C7.82865 18.052 7.52226 18.084 7.22617 18.0268C6.93009 17.9696 6.65766 17.8258 6.4434 17.6136C6.22915 17.4014 6.08272 17.1303 6.02268 16.8348C5.96264 16.5393 5.99168 16.2326 6.10614 15.9536C6.2206 15.6746 6.41531 15.4359 6.6656 15.2677C6.91589 15.0995 7.21048 15.0094 7.51203 15.0088C7.71149 15.0077 7.90921 15.0459 8.09389 15.1212C8.27857 15.1966 8.44658 15.3076 8.58829 15.4479C8.73001 15.5883 8.84266 15.7552 8.91978 15.9392C8.99691 16.1231 9.037 16.3205 9.03776 16.5199" fill="#EEE563"/>
<path d="M14.0214 16.5199C14.0237 16.8216 13.9364 17.1172 13.7705 17.3691C13.6046 17.6211 13.3675 17.8181 13.0895 17.9351C12.8115 18.0522 12.5049 18.084 12.2087 18.0266C11.9126 17.9692 11.6401 17.8251 11.426 17.6126C11.2119 17.4001 11.0657 17.1288 11.006 16.833C10.9462 16.5373 10.9757 16.2305 11.0906 15.9516C11.2055 15.6727 11.4007 15.4341 11.6514 15.2663C11.902 15.0984 12.1969 15.0088 12.4986 15.0088C12.6979 15.0077 12.8955 15.0459 13.08 15.1213C13.2645 15.1966 13.4323 15.3077 13.5738 15.4481C13.7153 15.5885 13.8277 15.7555 13.9045 15.9394C13.9813 16.1233 14.021 16.3206 14.0214 16.5199Z" fill="#EEE563"/>
<path d="M19.0077 16.5199C19.0106 16.8223 18.9236 17.1187 18.7577 17.3715C18.5918 17.6244 18.3546 17.8222 18.076 17.9399C17.7975 18.0576 17.4903 18.0899 17.1934 18.0327C16.8964 17.9755 16.6232 17.8314 16.4084 17.6186C16.1935 17.4058 16.0468 17.134 15.9867 16.8376C15.9266 16.5413 15.956 16.2337 16.071 15.9541C16.1861 15.6745 16.3816 15.4353 16.6328 15.267C16.884 15.0987 17.1796 15.0088 17.482 15.0088C17.6814 15.0077 17.8791 15.0459 18.0638 15.1212C18.2485 15.1966 18.4165 15.3076 18.5582 15.4479C18.6999 15.5883 18.8126 15.7552 18.8897 15.9392C18.9668 16.1231 19.0069 16.3205 19.0077 16.5199" fill="#EEE563"/>
</g>
<defs>
<clipPath id="clip0_1133_967">
<rect width="23.1988" height="23" fill="white" transform="translate(0.900635)"/>
</clipPath>
</defs>
</svg>