<svg xmlns:xlink="http://www.w3.org/1999/xlink" xmlns="http://www.w3.org/2000/svg" width="28" height="18" viewBox="0 0 28 18" fill="none">
<g clip-path="url(#clip0_1133_925)">
<rect x="0.676758" width="27.2154" height="18" rx="1" fill="white"/>
<path d="M17.429 3.83276H11.1897V14.0235H17.429V3.83276Z" fill="#FF5F00"/>
<path d="M11.8323 8.92889C11.8315 7.94762 12.0539 6.97902 12.4828 6.09641C12.9116 5.2138 13.5356 4.4403 14.3075 3.83444C13.3514 3.0831 12.2033 2.61588 10.9943 2.48619C9.78527 2.3565 8.56415 2.56957 7.4705 3.10105C6.37685 3.63252 5.45479 4.46097 4.8097 5.49169C4.16461 6.52242 3.82251 7.71384 3.82251 8.92979C3.82251 10.1457 4.16461 11.3372 4.8097 12.3679C5.45479 13.3986 6.37685 14.2271 7.4705 14.7585C8.56415 15.29 9.78527 15.5031 10.9943 15.3734C12.2033 15.2437 13.3514 14.7765 14.3075 14.0251C13.5353 13.4191 12.9112 12.6453 12.4824 11.7624C12.0535 10.8794 11.8312 9.91047 11.8323 8.92889V8.92889Z" fill="#EB001B"/>
<path d="M24.1743 12.9451V12.7363H24.2643V12.6931H24.05V12.7363H24.1347V12.9451H24.1743ZM24.5901 12.9451V12.6931H24.5253L24.4497 12.8731L24.3741 12.6931H24.3093V12.9451H24.3561V12.7543L24.4263 12.9181H24.4749L24.5451 12.7543V12.9451H24.5901Z" fill="#F79E1B"/>
<path d="M24.7933 8.929C24.7933 10.145 24.4511 11.3365 23.8059 12.3673C23.1607 13.3981 22.2385 14.2265 21.1447 14.7579C20.0509 15.2893 18.8297 15.5022 17.6206 15.3723C16.4115 15.2425 15.2633 14.775 14.3074 14.0234C15.079 13.417 15.7028 12.6433 16.1317 11.7607C16.5607 10.878 16.7835 9.90946 16.7835 8.9281C16.7835 7.94673 16.5607 6.97818 16.1317 6.09552C15.7028 5.21286 15.079 4.43915 14.3074 3.83275C15.2633 3.08117 16.4115 2.61372 17.6206 2.48385C18.8297 2.35397 20.0509 2.5669 21.1447 3.09831C22.2385 3.62971 23.1607 4.45814 23.8059 5.4889C24.4511 6.51966 24.7933 7.71116 24.7933 8.9272V8.929Z" fill="#F79E1B"/>
</g>
<rect x="1.17676" y="0.5" width="26.2154" height="17" rx="0.5" stroke="#EFEFF4"/>
<defs>
<clipPath id="clip0_1133_925">
<rect x="0.676758" width="27.2154" height="18" rx="1" fill="white"/>
</clipPath>
</defs>
</svg>