<svg xmlns:xlink="http://www.w3.org/1999/xlink" xmlns="http://www.w3.org/2000/svg" width="28" height="18" viewBox="0 0 28 18" fill="none">
<g clip-path="url(#clip0_1133_932)">
<rect x="0.461182" width="27.2154" height="18" rx="1" fill="white"/>
<g clip-path="url(#clip1_1133_932)">
<path d="M10.8345 5.5469L7.86019 12.6352H5.91965L4.45597 6.97887C4.36711 6.63045 4.29032 6.50281 4.01971 6.35614C3.57847 6.11692 2.84983 5.89272 2.20874 5.75337L2.25288 5.5469H5.37666C5.7747 5.5469 6.13264 5.81164 6.22304 6.26974L6.99606 10.3709L8.90653 5.54642L10.8345 5.5469ZM18.4379 10.3209C18.4457 8.45009 15.848 8.34715 15.8658 7.51131C15.8714 7.25697 16.1143 6.98667 16.6445 6.91753C16.9076 6.88314 17.6323 6.85678 18.4549 7.23475L18.7773 5.73163C18.3356 5.5716 17.7673 5.41748 17.0602 5.41748C15.2457 5.41748 13.9687 6.38096 13.958 7.76057C13.9461 8.78102 14.8691 9.35045 15.5649 9.68942C16.2804 10.0368 16.5204 10.2598 16.5178 10.5705C16.5126 11.046 15.9471 11.256 15.4186 11.2642C14.4956 11.2783 13.9604 11.0148 13.5335 10.8165L13.2008 12.3693C13.6297 12.566 14.4214 12.7375 15.2424 12.746C17.1711 12.746 18.4325 11.7945 18.4385 10.3209H18.4379ZM23.2299 12.6352H24.9278L23.4449 5.5469H21.878C21.7107 5.54546 21.5468 5.59426 21.4075 5.68699C21.2683 5.77971 21.1601 5.91208 21.0971 6.06693L18.3423 12.6352H20.2699L20.6524 11.5764H23.0077L23.2299 12.6352ZM21.1816 10.1236L22.1478 7.46215L22.704 10.1236H21.1816ZM13.4574 5.5469L11.9394 12.6352H10.1037L11.6223 5.5469H13.4574Z" fill="#1434CB"/>
</g>
</g>
<rect x="0.961182" y="0.5" width="26.2154" height="17" rx="0.5" stroke="#EFEFF4"/>
<defs>
<clipPath id="clip0_1133_932">
<rect x="0.461182" width="27.2154" height="18" rx="1" fill="white"/>
</clipPath>
<clipPath id="clip1_1133_932">
<rect width="22.7185" height="7.32853" fill="white" transform="translate(2.20874 5.41748)"/>
</clipPath>
</defs>
</svg>